<svg xmlns="http://www.w3.org/2000/svg" width="908" height="261" viewBox="0 0 908 261" version="1.1"><path d="M 25.975 88.695 C 23.531 89.077, 23.162 90.240, 14.636 124.433 C 9.789 143.873, 5.323 160.277, 4.711 160.889 C 4.100 161.500, 2.790 162, 1.800 162 C 0.547 162, 0 162.759, 0 164.500 C 0 166.991, 0.033 167, 9.500 167 C 18.967 167, 19 166.991, 19 164.500 C 19 162.500, 18.500 162, 16.500 162 C 14.222 162, 14.002 161.623, 14.023 157.750 C 14.035 155.412, 14.850 150.350, 15.834 146.500 L 17.622 139.500 26.213 139.212 L 34.804 138.925 36.902 148.038 C 39.717 160.265, 39.667 162, 36.500 162 C 34.500 162, 34 162.500, 34 164.500 L 34 167 45 167 L 56 167 56 164.500 C 56 162.493, 55.502 162, 53.475 162 C 51.776 162, 50.672 161.264, 50.099 159.750 C 49.631 158.512, 45.479 141.863, 40.874 122.751 C 31.741 84.854, 32.945 87.605, 25.975 88.695 M 75.094 89.292 C 70.948 90.615, 65.272 96.105, 63.388 100.613 C 61.430 105.300, 61.665 111.676, 63.970 116.434 C 66.170 120.973, 70.869 124.413, 83.612 130.811 C 95.596 136.827, 98.900 141.516, 97.541 150.576 C 96.059 160.457, 87.171 164.682, 77.606 160.051 C 72.896 157.771, 69.976 154.064, 67.608 147.357 C 66.502 144.225, 65.811 143.551, 63.935 143.772 C 62.664 143.921, 61.491 144.175, 61.330 144.337 C 61.053 144.613, 63.449 159.879, 64.530 164.727 C 65.014 166.896, 65.116 166.912, 68.402 165.345 C 71.508 163.864, 72.158 163.866, 76.567 165.368 C 92.867 170.922, 108.048 161.077, 107.972 145 C 107.930 135.856, 101.305 128.675, 85.851 121.023 C 80.211 118.230, 74.796 115.221, 73.818 114.335 C 70.012 110.891, 70.305 101.083, 74.353 96.376 C 77.366 92.873, 84.899 92.064, 90 94.695 C 92.917 96.200, 98.756 103.875, 100.217 108.124 C 100.372 108.578, 101.554 108.672, 102.842 108.334 C 104.945 107.781, 105.128 107.297, 104.632 103.609 C 104.328 101.349, 103.786 96.917, 103.426 93.761 L 102.772 88.021 100.075 89.615 C 97.607 91.073, 96.978 91.072, 92.654 89.604 C 87.335 87.798, 80.172 87.671, 75.094 89.292 M 280.094 89.292 C 275.948 90.615, 270.272 96.105, 268.388 100.613 C 266.430 105.300, 266.665 111.676, 268.970 116.434 C 271.170 120.973, 275.869 124.413, 288.612 130.811 C 300.596 136.827, 303.900 141.516, 302.541 150.576 C 301.059 160.457, 292.171 164.682, 282.606 160.051 C 277.896 157.771, 274.976 154.064, 272.608 147.357 C 271.502 144.225, 270.811 143.551, 268.935 143.772 C 267.664 143.921, 266.491 144.175, 266.330 144.337 C 266.053 144.613, 268.449 159.879, 269.530 164.727 C 270.014 166.896, 270.116 166.912, 273.402 165.345 C 276.508 163.864, 277.158 163.866, 281.567 165.368 C 297.867 170.922, 313.048 161.077, 312.972 145 C 312.930 135.856, 306.305 128.675, 290.851 121.023 C 285.211 118.230, 279.796 115.221, 278.818 114.335 C 275.012 110.891, 275.305 101.083, 279.353 96.376 C 282.366 92.873, 289.899 92.064, 295 94.695 C 297.917 96.200, 303.756 103.875, 305.217 108.124 C 305.372 108.578, 306.554 108.672, 307.842 108.334 C 309.945 107.781, 310.128 107.297, 309.632 103.609 C 309.328 101.349, 308.786 96.917, 308.426 93.761 L 307.772 88.021 305.075 89.615 C 302.607 91.073, 301.978 91.072, 297.654 89.604 C 292.335 87.798, 285.172 87.671, 280.094 89.292 M 396.246 89.975 C 385.777 94.727, 379.026 109.248, 379.032 127 C 379.042 154.276, 392.939 171.032, 411.321 165.928 C 422.592 162.798, 430.933 146.660, 430.983 127.886 C 431.056 99.793, 414.478 81.699, 396.246 89.975 M 765.975 88.695 C 763.531 89.077, 763.162 90.240, 754.636 124.433 C 749.789 143.873, 745.323 160.277, 744.711 160.889 C 744.100 161.500, 742.790 162, 741.800 162 C 740.547 162, 740 162.759, 740 164.500 C 740 166.991, 740.033 167, 749.500 167 C 758.967 167, 759 166.991, 759 164.500 C 759 162.500, 758.500 162, 756.500 162 C 754.222 162, 754.002 161.623, 754.023 157.750 C 754.035 155.412, 754.850 150.350, 755.834 146.500 L 757.622 139.500 766.213 139.212 L 774.804 138.925 776.902 148.038 C 779.717 160.265, 779.667 162, 776.500 162 C 774.500 162, 774 162.500, 774 164.500 L 774 167 785 167 L 796 167 796 164.500 C 796 162.493, 795.502 162, 793.475 162 C 791.776 162, 790.672 161.264, 790.099 159.750 C 789.631 158.512, 785.479 141.863, 780.874 122.751 C 771.741 84.854, 772.945 87.605, 765.975 88.695 M 821.994 88.874 C 814.553 91.316, 808.906 96.343, 804.997 104.006 C 797.543 118.616, 798.831 146.223, 807.495 157.582 C 811.456 162.776, 818.044 166.157, 825.290 166.715 C 830.714 167.133, 832.184 166.833, 836.902 164.345 C 842.801 161.236, 848.195 154.573, 849.945 148.238 C 851.108 144.024, 851.260 144.354, 847.748 143.473 C 845.491 142.906, 844.998 143.115, 844.991 144.642 C 844.985 145.664, 843.630 148.856, 841.978 151.736 C 838.141 158.427, 832.776 161.460, 826.108 160.709 C 817.045 159.687, 812.310 150.648, 811.293 132.432 C 810.141 111.793, 816.032 95.787, 825.669 93.368 C 832.483 91.658, 839.426 95.979, 843.416 104.414 C 845.644 109.123, 846.225 109.680, 848.467 109.251 C 851.479 108.675, 851.462 109.707, 848.645 98 C 846.930 90.871, 846.002 88.612, 844.929 88.947 C 843.219 89.483, 839.712 89.403, 831 88.629 C 827.425 88.312, 823.372 88.422, 821.994 88.874 M 116 91.357 C 116 93.465, 116.527 93.924, 119.250 94.187 L 122.500 94.500 122.500 128 L 122.500 161.500 119.250 161.813 C 116.558 162.073, 116 162.545, 116 164.563 L 116 167 128 167 L 140 167 140 164.563 C 140 162.545, 139.442 162.073, 136.750 161.813 L 133.500 161.500 133.224 146.867 L 132.948 132.235 142.755 131.841 C 151.266 131.499, 153.188 131.080, 157.303 128.668 C 163.503 125.035, 166.966 119.726, 167.686 112.752 C 168.655 103.362, 164.836 96.097, 156.624 91.708 C 152.888 89.712, 150.783 89.473, 134.250 89.173 L 116 88.841 116 91.357 M 323.535 96.731 C 322.615 101.004, 321.637 105.287, 321.363 106.250 C 320.982 107.590, 321.464 108, 323.423 108 C 325.595 108, 326.413 107.044, 328.859 101.651 C 331.837 95.082, 333.252 94.043, 339.263 94.014 L 342.027 94 341.763 127.750 L 341.500 161.500 337.750 161.810 C 334.526 162.077, 334 162.463, 334 164.560 L 334 167 347 167 L 360 167 360 164.560 C 360 162.463, 359.474 162.077, 356.250 161.810 L 352.500 161.500 352.237 127.750 L 351.973 94 355.552 94 C 360.923 94, 362.858 95.540, 365.688 102.066 C 367.792 106.917, 368.694 108, 370.631 108 C 373.407 108, 373.368 108.735, 371.162 98 L 369.416 89.500 347.313 89.231 L 325.209 88.962 323.535 96.731 M 435 91.356 C 435 93.465, 435.527 93.924, 438.250 94.187 L 441.500 94.500 441.500 128 L 441.500 161.500 438.250 161.813 C 435.558 162.073, 435 162.545, 435 164.563 L 435 167 447 167 L 459 167 459 164.500 C 459 162.310, 458.567 162, 455.500 162 L 452 162 452 145.500 L 452 129 455.821 129 L 459.643 129 466.720 147.750 L 473.798 166.500 481.399 166.792 C 488.901 167.080, 489 167.052, 489 164.605 C 489 162.555, 488.453 162.073, 485.832 161.813 C 482.738 161.507, 482.506 161.118, 475.864 145.051 C 472.124 136.004, 469.162 128.545, 469.282 128.474 C 469.402 128.403, 470.899 127.789, 472.608 127.110 C 476.706 125.482, 482.450 119.355, 483.867 115.101 C 487.021 105.636, 483.584 96.123, 475.532 92.027 C 470.867 89.654, 469.478 89.480, 452.782 89.169 L 435 88.838 435 91.356 M 493 91.434 C 493 93.345, 493.590 93.935, 495.750 94.184 L 498.500 94.500 498.500 128 L 498.500 161.500 495.250 161.813 C 492.558 162.073, 492 162.545, 492 164.563 L 492 167 515.433 167 C 536.883 167, 538.910 166.852, 539.390 165.250 C 541.150 159.381, 543.935 148.609, 543.736 148.444 C 543.606 148.336, 542.559 147.960, 541.409 147.607 C 539.687 147.079, 539.006 147.661, 537.541 150.910 C 535.446 155.554, 531.615 159.451, 527.685 160.936 C 526.137 161.521, 521.299 162, 516.935 162 L 509 162 509 145 L 509 128 515.250 128.015 C 518.688 128.024, 521.995 128.361, 522.600 128.765 C 524.457 130.005, 526 133.712, 526 136.934 C 526 139.674, 526.319 140, 529 140 L 532 140 532 126 L 532 112 529 112 C 526.238 112, 526 112.278, 526 115.500 C 526 121.068, 523.288 123, 515.473 123 L 508.945 123 509.223 108.750 L 509.500 94.500 518.697 94.500 C 527.850 94.500, 527.911 94.517, 531.524 98 C 533.521 99.925, 535.891 102.737, 536.792 104.249 C 538.019 106.308, 538.941 106.842, 540.465 106.375 C 541.584 106.032, 542.625 105.645, 542.778 105.515 C 542.930 105.385, 541.898 101.616, 540.484 97.139 L 537.913 89 515.456 89 L 493 89 493 91.434 M 628 91.356 C 628 93.465, 628.527 93.924, 631.250 94.187 L 634.500 94.500 634.500 128 L 634.500 161.500 631.250 161.813 C 628.558 162.073, 628 162.545, 628 164.563 L 628 167 640 167 L 652 167 652 164.500 C 652 162.310, 651.567 162, 648.500 162 L 645 162 645 145.500 L 645 129 648.821 129 L 652.643 129 659.720 147.750 L 666.798 166.500 674.399 166.792 C 681.901 167.080, 682 167.052, 682 164.605 C 682 162.555, 681.453 162.073, 678.832 161.813 C 675.738 161.507, 675.506 161.118, 668.864 145.051 C 665.124 136.004, 662.162 128.545, 662.282 128.474 C 662.402 128.403, 663.899 127.789, 665.608 127.110 C 669.706 125.482, 675.450 119.355, 676.867 115.101 C 680.021 105.636, 676.584 96.123, 668.532 92.027 C 663.867 89.654, 662.478 89.480, 645.782 89.169 L 628 88.838 628 91.356 M 686 91.434 C 686 93.345, 686.590 93.935, 688.750 94.184 L 691.500 94.500 691.500 128 L 691.500 161.500 688.250 161.813 C 685.558 162.073, 685 162.545, 685 164.563 L 685 167 708.433 167 C 729.883 167, 731.910 166.852, 732.390 165.250 C 734.150 159.381, 736.935 148.609, 736.736 148.444 C 736.606 148.336, 735.559 147.960, 734.409 147.607 C 732.687 147.079, 732.006 147.661, 730.541 150.910 C 728.446 155.554, 724.615 159.451, 720.685 160.936 C 719.137 161.521, 714.299 162, 709.935 162 L 702 162 702 145 L 702 128 708.250 128.015 C 711.688 128.024, 714.995 128.361, 715.600 128.765 C 717.457 130.005, 719 133.712, 719 136.934 C 719 139.674, 719.319 140, 722 140 L 725 140 725 126 L 725 112 722 112 C 719.238 112, 719 112.278, 719 115.500 C 719 121.068, 716.288 123, 708.473 123 L 701.945 123 702.223 108.750 L 702.500 94.500 711.697 94.500 C 720.850 94.500, 720.911 94.517, 724.524 98 C 726.521 99.925, 728.891 102.737, 729.792 104.249 C 731.019 106.308, 731.941 106.842, 733.465 106.375 C 734.584 106.032, 735.625 105.645, 735.778 105.515 C 735.930 105.385, 734.898 101.616, 733.484 97.139 L 730.913 89 708.456 89 L 686 89 686 91.434 M 858.535 96.731 C 857.615 101.004, 856.637 105.287, 856.363 106.250 C 855.982 107.590, 856.464 108, 858.423 108 C 860.595 108, 861.413 107.044, 863.859 101.651 C 866.837 95.082, 868.252 94.043, 874.263 94.014 L 877.027 94 876.763 127.750 L 876.500 161.500 872.750 161.810 C 869.526 162.077, 869 162.463, 869 164.560 L 869 167 882 167 L 895 167 895 164.560 C 895 162.463, 894.474 162.077, 891.250 161.810 L 887.500 161.500 887.237 127.750 L 886.973 94 890.552 94 C 895.923 94, 897.858 95.540, 900.688 102.066 C 902.792 106.917, 903.694 108, 905.631 108 C 908.407 108, 908.368 108.735, 906.162 98 L 904.416 89.500 882.313 89.231 L 860.209 88.962 858.535 96.731 M 399.828 94.531 C 396.232 96.484, 392.163 105.111, 390.835 113.597 C 389.429 122.587, 390.350 141.980, 392.515 148.972 C 394.628 155.798, 400.401 162.002, 404.632 161.996 C 408.967 161.991, 413.486 158.698, 415.815 153.848 C 421.549 141.909, 421.316 112.898, 415.386 100.402 C 412.332 93.965, 405.569 91.413, 399.828 94.531 M 133.667 94.667 C 133.300 95.033, 133 102.458, 133 111.167 L 133 127 139.766 127 C 151.254 127, 156.970 122.406, 157.790 112.516 C 158.481 104.190, 155.955 98.337, 150.628 95.918 C 146.578 94.080, 135.101 93.233, 133.667 94.667 M 452.750 94.561 C 452.337 94.986, 452 101.783, 452 109.667 L 452 124 458.040 124 C 465.702 124, 471.104 121.408, 473.362 116.649 C 476.603 109.820, 474.718 99.827, 469.552 96.442 C 466.786 94.630, 454.067 93.206, 452.750 94.561 M 645.750 94.561 C 645.337 94.986, 645 101.783, 645 109.667 L 645 124 651.040 124 C 658.702 124, 664.104 121.408, 666.362 116.649 C 669.603 109.820, 667.718 99.827, 662.552 96.442 C 659.786 94.630, 647.067 93.206, 645.750 94.561 M 23.042 116.787 C 21.191 124.329, 19.472 131.287, 19.222 132.250 C 18.818 133.803, 19.623 134, 26.383 134 C 30.573 134, 34 133.826, 34 133.614 C 34 132.927, 26.841 103.508, 26.620 103.287 C 26.503 103.170, 24.893 109.245, 23.042 116.787 M 763.042 116.787 C 761.191 124.329, 759.472 131.287, 759.222 132.250 C 758.818 133.803, 759.623 134, 766.383 134 C 770.573 134, 774 133.826, 774 133.614 C 774 132.927, 766.841 103.508, 766.620 103.287 C 766.503 103.170, 764.893 109.245, 763.042 116.787" stroke="none" fill="#04244c" fill-rule="evenodd"/><path d="M 168 38.500 L 168 77 172 77 L 176 77 176 42.500 L 176 8 398 8 L 620 8 620 42.500 L 620 77 624 77 L 628 77 628 38.500 L 628 0 398 0 L 168 0 168 38.500 M 168 220 L 168 261 398 261 L 628 261 628 220 L 628 179 624 179 L 620 179 620 216 L 620 253 398 253 L 176 253 176 216 L 176 179 172 179 L 168 179 168 220" stroke="none" fill="#4484fc" fill-rule="evenodd"/></svg>